# Blender 3.5.0
# www.blender.org
mtllib LowPolyWheel_Unity_01.mtl
o Cylinder.002
v 1.235636 1.208101 1.008456
v 1.235636 1.092121 1.490161
v 1.466091 1.162261 1.008456
v 1.421707 1.055110 1.490161
v 1.661461 1.031718 1.008456
v 1.579451 0.949709 1.490161
v 1.792003 0.836348 1.008456
v 1.684852 0.791965 1.490161
v 1.837843 0.605894 1.008456
v 1.721864 0.605894 1.490161
v 1.792003 0.375439 1.008456
v 1.684852 0.419822 1.490161
v 1.661461 0.180069 1.008456
v 1.579451 0.262078 1.490161
v 1.466091 0.049527 1.008456
v 1.421707 0.156678 1.490161
v 1.235636 0.003686 1.008456
v 1.235636 0.119666 1.490161
v 1.005181 0.049527 1.008456
v 1.049565 0.156678 1.490161
v 0.809811 0.180069 1.008456
v 0.891821 0.262078 1.490161
v 0.679269 0.375439 1.008456
v 0.786420 0.419822 1.490161
v 0.633429 0.605894 1.008456
v 0.749408 0.605894 1.490161
v 0.679269 0.836348 1.008456
v 0.786420 0.791965 1.490161
v 0.809811 1.031718 1.008456
v 0.891821 0.949709 1.490161
v 1.005181 1.162261 1.008456
v 1.049565 1.055110 1.490161
v 1.466091 1.162261 1.490161
v 1.235636 1.208101 1.490161
v 1.661461 1.031718 1.490161
v 1.792003 0.836348 1.490161
v 1.837843 0.605894 1.490161
v 1.792003 0.375439 1.490161
v 1.661461 0.180069 1.490161
v 1.466091 0.049527 1.490161
v 1.235636 0.003686 1.490161
v 1.005181 0.049527 1.490161
v 0.809811 0.180069 1.490161
v 0.679269 0.375439 1.490161
v 0.633429 0.605894 1.490161
v 0.679269 0.836348 1.490161
v 0.809811 1.031718 1.490161
v 1.005181 1.162261 1.490161
vn 0.1951 0.9808 -0.0000
vn 0.5556 0.8315 -0.0000
vn 0.8315 0.5556 -0.0000
vn 0.9808 0.1951 -0.0000
vn 0.9808 -0.1951 -0.0000
vn 0.8315 -0.5556 -0.0000
vn 0.5556 -0.8315 -0.0000
vn 0.1951 -0.9808 -0.0000
vn -0.1951 -0.9808 -0.0000
vn -0.5556 -0.8315 -0.0000
vn -0.8315 -0.5556 -0.0000
vn -0.9808 -0.1951 -0.0000
vn -0.9808 0.1951 -0.0000
vn -0.8315 0.5556 -0.0000
vn -0.0000 -0.0000 1.0000
vn -0.5556 0.8315 -0.0000
vn -0.1951 0.9808 -0.0000
vn -0.0000 -0.0000 -1.0000
vt 1.000000 0.500000
vt 0.000000 0.500000
vt 0.750000 0.490000
vt 0.250000 0.443778
vt 0.937500 0.500000
vt 0.841844 0.471731
vt 0.324156 0.429028
vt 0.875000 0.500000
vt 0.919706 0.419706
vt 0.387022 0.387022
vt 0.812500 0.500000
vt 0.971731 0.341844
vt 0.429028 0.324156
vt 0.750000 0.500000
vt 0.990000 0.250000
vt 0.443778 0.250000
vt 0.687500 0.500000
vt 0.971731 0.158156
vt 0.429028 0.175844
vt 0.625000 0.500000
vt 0.919706 0.080294
vt 0.387022 0.112978
vt 0.562500 0.500000
vt 0.841844 0.028269
vt 0.324156 0.070972
vt 0.500000 0.500000
vt 0.750000 0.010000
vt 0.250000 0.056222
vt 0.437500 0.500000
vt 0.658156 0.028269
vt 0.175844 0.070972
vt 0.375000 0.500000
vt 0.580294 0.080294
vt 0.112978 0.112978
vt 0.312500 0.500000
vt 0.528269 0.158156
vt 0.070972 0.175844
vt 0.250000 0.500000
vt 0.510000 0.250000
vt 0.056222 0.250000
vt 0.187500 0.500000
vt 0.528269 0.341844
vt 0.070972 0.324156
vt 0.125000 0.500000
vt 0.580294 0.419706
vt 0.112978 0.387022
vt 0.062500 0.500000
vt 0.658156 0.471731
vt 0.175844 0.429028
vt 0.937500 1.000000
vt 0.341844 0.471731
vt 1.000000 1.000000
vt 0.000000 1.000000
vt 0.250000 0.490000
vt 0.875000 1.000000
vt 0.419706 0.419706
vt 0.812500 1.000000
vt 0.471731 0.341844
vt 0.750000 1.000000
vt 0.490000 0.250000
vt 0.687500 1.000000
vt 0.471731 0.158156
vt 0.625000 1.000000
vt 0.419706 0.080294
vt 0.562500 1.000000
vt 0.341844 0.028269
vt 0.500000 1.000000
vt 0.250000 0.010000
vt 0.437500 1.000000
vt 0.158156 0.028269
vt 0.375000 1.000000
vt 0.080294 0.080294
vt 0.312500 1.000000
vt 0.028269 0.158156
vt 0.250000 1.000000
vt 0.010000 0.250000
vt 0.187500 1.000000
vt 0.028269 0.341844
vt 0.125000 1.000000
vt 0.080294 0.419706
vt 0.062500 1.000000
vt 0.158156 0.471731
s 0
f 1/1/1 34/52/1 33/50/1 3/5/1
f 3/5/2 33/50/2 35/55/2 5/8/2
f 5/8/3 35/55/3 36/57/3 7/11/3
f 7/11/4 36/57/4 37/59/4 9/14/4
f 9/14/5 37/59/5 38/61/5 11/17/5
f 11/17/6 38/61/6 39/63/6 13/20/6
f 13/20/7 39/63/7 40/65/7 15/23/7
f 15/23/8 40/65/8 41/67/8 17/26/8
f 17/26/9 41/67/9 42/69/9 19/29/9
f 19/29/10 42/69/10 43/71/10 21/32/10
f 21/32/11 43/71/11 44/73/11 23/35/11
f 23/35/12 44/73/12 45/75/12 25/38/12
f 25/38/13 45/75/13 46/77/13 27/41/13
f 27/41/14 46/77/14 47/79/14 29/44/14
f 4/7/15 2/4/15 32/49/15 30/46/15 28/43/15 26/40/15 24/37/15 22/34/15 20/31/15 18/28/15 16/25/15 14/22/15 12/19/15 10/16/15 8/13/15 6/10/15
f 29/44/16 47/79/16 48/81/16 31/47/16
f 31/47/17 48/81/17 34/53/17 1/2/17
f 1/3/18 3/6/18 5/9/18 7/12/18 9/15/18 11/18/18 13/21/18 15/24/18 17/27/18 19/30/18 21/33/18 23/36/18 25/39/18 27/42/18 29/45/18 31/48/18
f 2/4/15 4/7/15 33/51/15 34/54/15
f 4/7/15 6/10/15 35/56/15 33/51/15
f 6/10/15 8/13/15 36/58/15 35/56/15
f 8/13/15 10/16/15 37/60/15 36/58/15
f 10/16/15 12/19/15 38/62/15 37/60/15
f 12/19/15 14/22/15 39/64/15 38/62/15
f 14/22/15 16/25/15 40/66/15 39/64/15
f 16/25/15 18/28/15 41/68/15 40/66/15
f 18/28/15 20/31/15 42/70/15 41/68/15
f 20/31/15 22/34/15 43/72/15 42/70/15
f 22/34/15 24/37/15 44/74/15 43/72/15
f 24/37/15 26/40/15 45/76/15 44/74/15
f 26/40/15 28/43/15 46/78/15 45/76/15
f 28/43/15 30/46/15 47/80/15 46/78/15
f 30/46/15 32/49/15 48/82/15 47/80/15
f 32/49/15 2/4/15 34/54/15 48/82/15
